<svg xmlns="http://www.w3.org/2000/svg" width="1035" height="430" viewBox="0 0 1035 430">
<rect width="100%" height="100%" fill="#ffffff"/>
<text x="517.5" y="28" text-anchor="middle" font-family="Arial, sans-serif" font-size="18" font-weight="700">Estimated Memory by Algorithm</text>
<text x="16" y="197" transform="rotate(-90 16 197)" text-anchor="middle" font-family="Arial, sans-serif" font-size="12">KB</text>
<line x1="70" y1="342" x2="1011" y2="342" stroke="#222"/>
<line x1="70" y1="52" x2="70" y2="342" stroke="#222"/>
<line x1="66" y1="342" x2="1011" y2="342" stroke="#e6e6e6"/>
<text x="62" y="346" text-anchor="end" font-family="Arial, sans-serif" font-size="11" fill="#333">0.00</text>
<line x1="66" y1="284" x2="1011" y2="284" stroke="#e6e6e6"/>
<text x="62" y="288" text-anchor="end" font-family="Arial, sans-serif" font-size="11" fill="#333">39385.72</text>
<line x1="66" y1="226" x2="1011" y2="226" stroke="#e6e6e6"/>
<text x="62" y="230" text-anchor="end" font-family="Arial, sans-serif" font-size="11" fill="#333">78771.44</text>
<line x1="66" y1="168" x2="1011" y2="168" stroke="#e6e6e6"/>
<text x="62" y="172" text-anchor="end" font-family="Arial, sans-serif" font-size="11" fill="#333">118157.16</text>
<line x1="66" y1="110" x2="1011" y2="110" stroke="#e6e6e6"/>
<text x="62" y="114" text-anchor="end" font-family="Arial, sans-serif" font-size="11" fill="#333">157542.88</text>
<line x1="66" y1="52" x2="1011" y2="52" stroke="#e6e6e6"/>
<text x="62" y="56" text-anchor="end" font-family="Arial, sans-serif" font-size="11" fill="#333">196928.60</text>
<text x="187.625" y="380" text-anchor="middle" font-family="Arial, sans-serif" font-size="12">FSU KNAPSACK_01</text>
<rect x="105.625" y="341.999" width="28" height="0.000740622" fill="#3366cc"/>
<text x="119.625" y="336.999" text-anchor="middle" font-family="Arial, sans-serif" font-size="10" fill="#333">0.50</text>
<rect x="139.625" y="323.576" width="28" height="18.4239" fill="#dc3912"/>
<text x="153.625" y="318.576" text-anchor="middle" font-family="Arial, sans-serif" font-size="10" fill="#333">12511.04</text>
<rect x="173.625" y="111.728" width="28" height="230.272" fill="#990099"/>
<text x="187.625" y="106.728" text-anchor="middle" font-family="Arial, sans-serif" font-size="10" fill="#333">156369.71</text>
<rect x="207.625" y="342" width="28" height="0.000471697" fill="#ff9900"/>
<text x="221.625" y="337" text-anchor="middle" font-family="Arial, sans-serif" font-size="10" fill="#333">0.32</text>
<rect x="241.625" y="341.997" width="28" height="0.00303943" fill="#109618"/>
<text x="255.625" y="336.997" text-anchor="middle" font-family="Arial, sans-serif" font-size="10" fill="#333">2.06</text>
<text x="422.875" y="380" text-anchor="middle" font-family="Arial, sans-serif" font-size="12">JorikJooken</text>
<rect x="340.875" y="341.944" width="28" height="0.0564478" fill="#3366cc"/>
<text x="354.875" y="336.944" text-anchor="middle" font-family="Arial, sans-serif" font-size="10" fill="#333">38.33</text>
<rect x="374.875" y="318.99" width="28" height="23.0102" fill="#dc3912"/>
<text x="388.875" y="313.99" text-anchor="middle" font-family="Arial, sans-serif" font-size="10" fill="#333">15625.40</text>
<rect x="408.875" y="342" width="28" height="0" fill="#990099"/>
<text x="422.875" y="337" text-anchor="middle" font-family="Arial, sans-serif" font-size="10" fill="#333">0.00</text>
<rect x="442.875" y="342" width="28" height="0" fill="#ff9900"/>
<text x="456.875" y="337" text-anchor="middle" font-family="Arial, sans-serif" font-size="10" fill="#333">0.00</text>
<rect x="476.875" y="342" width="28" height="0" fill="#109618"/>
<text x="490.875" y="337" text-anchor="middle" font-family="Arial, sans-serif" font-size="10" fill="#333">0.00</text>
<text x="658.125" y="380" text-anchor="middle" font-family="Arial, sans-serif" font-size="12">Unicauca large_scale</text>
<rect x="576.125" y="341.813" width="28" height="0.186628" fill="#3366cc"/>
<text x="590.125" y="336.813" text-anchor="middle" font-family="Arial, sans-serif" font-size="10" fill="#333">126.73</text>
<rect x="610.125" y="341.689" width="28" height="0.310838" fill="#dc3912"/>
<text x="624.125" y="336.689" text-anchor="middle" font-family="Arial, sans-serif" font-size="10" fill="#333">211.08</text>
<rect x="644.125" y="52" width="28" height="290" fill="#990099"/>
<text x="658.125" y="47" text-anchor="middle" font-family="Arial, sans-serif" font-size="10" fill="#333">196928.60</text>
<rect x="678.125" y="341.995" width="28" height="0.00460192" fill="#ff9900"/>
<text x="692.125" y="336.995" text-anchor="middle" font-family="Arial, sans-serif" font-size="10" fill="#333">3.12</text>
<rect x="712.125" y="341.986" width="28" height="0.0139438" fill="#109618"/>
<text x="726.125" y="336.986" text-anchor="middle" font-family="Arial, sans-serif" font-size="10" fill="#333">9.47</text>
<text x="893.375" y="380" text-anchor="middle" font-family="Arial, sans-serif" font-size="12">Unicauca low-dimensional</text>
<rect x="811.375" y="341.999" width="28" height="0.000859984" fill="#3366cc"/>
<text x="825.375" y="336.999" text-anchor="middle" font-family="Arial, sans-serif" font-size="10" fill="#333">0.58</text>
<rect x="845.375" y="341.969" width="28" height="0.0313781" fill="#dc3912"/>
<text x="859.375" y="336.969" text-anchor="middle" font-family="Arial, sans-serif" font-size="10" fill="#333">21.31</text>
<rect x="879.375" y="341.64" width="28" height="0.360053" fill="#990099"/>
<text x="893.375" y="336.64" text-anchor="middle" font-family="Arial, sans-serif" font-size="10" fill="#333">244.50</text>
<rect x="913.375" y="341.999" width="28" height="0.000543027" fill="#ff9900"/>
<text x="927.375" y="336.999" text-anchor="middle" font-family="Arial, sans-serif" font-size="10" fill="#333">0.37</text>
<rect x="947.375" y="326.267" width="28" height="15.7333" fill="#109618"/>
<text x="961.375" y="321.267" text-anchor="middle" font-family="Arial, sans-serif" font-size="10" fill="#333">10683.89</text>
<rect x="70" y="396" width="12" height="12" fill="#3366cc"/>
<text x="88" y="406" font-family="Arial, sans-serif" font-size="12">greedy</text>
<rect x="245" y="396" width="12" height="12" fill="#dc3912"/>
<text x="263" y="406" font-family="Arial, sans-serif" font-size="12">dynamic programming</text>
<rect x="420" y="396" width="12" height="12" fill="#990099"/>
<text x="438" y="406" font-family="Arial, sans-serif" font-size="12">dynamic programming 2d</text>
<rect x="595" y="396" width="12" height="12" fill="#ff9900"/>
<text x="613" y="406" font-family="Arial, sans-serif" font-size="12">backtracking</text>
<rect x="770" y="396" width="12" height="12" fill="#109618"/>
<text x="788" y="406" font-family="Arial, sans-serif" font-size="12">branch bound</text>
</svg>
