<svg xmlns="http://www.w3.org/2000/svg" width="1035" height="430" viewBox="0 0 1035 430">
<rect width="100%" height="100%" fill="#ffffff"/>
<text x="517.5" y="28" text-anchor="middle" font-family="Arial, sans-serif" font-size="18" font-weight="700">Running Time by Algorithm</text>
<text x="16" y="197" transform="rotate(-90 16 197)" text-anchor="middle" font-family="Arial, sans-serif" font-size="12">milliseconds (log scale)</text>
<line x1="70" y1="342" x2="1011" y2="342" stroke="#222"/>
<line x1="70" y1="52" x2="70" y2="342" stroke="#222"/>
<line x1="66" y1="342" x2="1011" y2="342" stroke="#e6e6e6"/>
<text x="62" y="346" text-anchor="end" font-family="Arial, sans-serif" font-size="11" fill="#333">0.00</text>
<line x1="66" y1="284" x2="1011" y2="284" stroke="#e6e6e6"/>
<text x="62" y="288" text-anchor="end" font-family="Arial, sans-serif" font-size="11" fill="#333">2.09</text>
<line x1="66" y1="226" x2="1011" y2="226" stroke="#e6e6e6"/>
<text x="62" y="230" text-anchor="end" font-family="Arial, sans-serif" font-size="11" fill="#333">8.52</text>
<line x1="66" y1="168" x2="1011" y2="168" stroke="#e6e6e6"/>
<text x="62" y="172" text-anchor="end" font-family="Arial, sans-serif" font-size="11" fill="#333">28.38</text>
<line x1="66" y1="110" x2="1011" y2="110" stroke="#e6e6e6"/>
<text x="62" y="114" text-anchor="end" font-family="Arial, sans-serif" font-size="11" fill="#333">89.65</text>
<line x1="66" y1="52" x2="1011" y2="52" stroke="#e6e6e6"/>
<text x="62" y="56" text-anchor="end" font-family="Arial, sans-serif" font-size="11" fill="#333">278.72</text>
<text x="187.625" y="380" text-anchor="middle" font-family="Arial, sans-serif" font-size="12">FSU KNAPSACK_01</text>
<rect x="105.625" y="341.926" width="28" height="0.0739426" fill="#3366cc"/>
<text x="119.625" y="336.926" text-anchor="middle" font-family="Arial, sans-serif" font-size="10" fill="#333">0.00</text>
<rect x="139.625" y="175.949" width="28" height="166.051" fill="#dc3912"/>
<text x="153.625" y="170.949" text-anchor="middle" font-family="Arial, sans-serif" font-size="10" fill="#333">24.17</text>
<rect x="173.625" y="148.433" width="28" height="193.567" fill="#990099"/>
<text x="187.625" y="143.433" text-anchor="middle" font-family="Arial, sans-serif" font-size="10" fill="#333">41.97</text>
<rect x="207.625" y="341.772" width="28" height="0.227916" fill="#ff9900"/>
<text x="221.625" y="336.772" text-anchor="middle" font-family="Arial, sans-serif" font-size="10" fill="#333">0.00</text>
<rect x="241.625" y="341.353" width="28" height="0.647078" fill="#109618"/>
<text x="255.625" y="336.353" text-anchor="middle" font-family="Arial, sans-serif" font-size="10" fill="#333">0.01</text>
<text x="422.875" y="380" text-anchor="middle" font-family="Arial, sans-serif" font-size="12">JorikJooken</text>
<rect x="340.875" y="338.686" width="28" height="3.31426" fill="#3366cc"/>
<text x="354.875" y="333.686" text-anchor="middle" font-family="Arial, sans-serif" font-size="10" fill="#333">0.07</text>
<rect x="374.875" y="52" width="28" height="290" fill="#dc3912"/>
<text x="388.875" y="47" text-anchor="middle" font-family="Arial, sans-serif" font-size="10" fill="#333">278.72</text>
<rect x="408.875" y="342" width="28" height="0" fill="#990099"/>
<text x="422.875" y="337" text-anchor="middle" font-family="Arial, sans-serif" font-size="10" fill="#333">0.00</text>
<rect x="442.875" y="342" width="28" height="0" fill="#ff9900"/>
<text x="456.875" y="337" text-anchor="middle" font-family="Arial, sans-serif" font-size="10" fill="#333">0.00</text>
<rect x="476.875" y="342" width="28" height="0" fill="#109618"/>
<text x="490.875" y="337" text-anchor="middle" font-family="Arial, sans-serif" font-size="10" fill="#333">0.00</text>
<text x="658.125" y="380" text-anchor="middle" font-family="Arial, sans-serif" font-size="12">Unicauca large_scale</text>
<rect x="576.125" y="329.131" width="28" height="12.8688" fill="#3366cc"/>
<text x="590.125" y="324.131" text-anchor="middle" font-family="Arial, sans-serif" font-size="10" fill="#333">0.28</text>
<rect x="610.125" y="115.868" width="28" height="226.132" fill="#dc3912"/>
<text x="624.125" y="110.868" text-anchor="middle" font-family="Arial, sans-serif" font-size="10" fill="#333">79.88</text>
<rect x="644.125" y="115.235" width="28" height="226.765" fill="#990099"/>
<text x="658.125" y="110.235" text-anchor="middle" font-family="Arial, sans-serif" font-size="10" fill="#333">80.88</text>
<rect x="678.125" y="341.141" width="28" height="0.859288" fill="#ff9900"/>
<text x="692.125" y="336.141" text-anchor="middle" font-family="Arial, sans-serif" font-size="10" fill="#333">0.02</text>
<rect x="712.125" y="338.755" width="28" height="3.24487" fill="#109618"/>
<text x="726.125" y="333.755" text-anchor="middle" font-family="Arial, sans-serif" font-size="10" fill="#333">0.07</text>
<text x="893.375" y="380" text-anchor="middle" font-family="Arial, sans-serif" font-size="12">Unicauca low-dimensional</text>
<rect x="811.375" y="341.88" width="28" height="0.119798" fill="#3366cc"/>
<text x="825.375" y="336.88" text-anchor="middle" font-family="Arial, sans-serif" font-size="10" fill="#333">0.00</text>
<rect x="845.375" y="340.154" width="28" height="1.84592" fill="#dc3912"/>
<text x="859.375" y="335.154" text-anchor="middle" font-family="Arial, sans-serif" font-size="10" fill="#333">0.04</text>
<rect x="879.375" y="336.606" width="28" height="5.3936" fill="#990099"/>
<text x="893.375" y="331.606" text-anchor="middle" font-family="Arial, sans-serif" font-size="10" fill="#333">0.11</text>
<rect x="913.375" y="278.227" width="28" height="63.7728" fill="#ff9900"/>
<text x="927.375" y="273.227" text-anchor="middle" font-family="Arial, sans-serif" font-size="10" fill="#333">2.45</text>
<rect x="947.375" y="119.062" width="28" height="222.938" fill="#109618"/>
<text x="961.375" y="114.062" text-anchor="middle" font-family="Arial, sans-serif" font-size="10" fill="#333">75.02</text>
<rect x="70" y="396" width="12" height="12" fill="#3366cc"/>
<text x="88" y="406" font-family="Arial, sans-serif" font-size="12">greedy</text>
<rect x="245" y="396" width="12" height="12" fill="#dc3912"/>
<text x="263" y="406" font-family="Arial, sans-serif" font-size="12">dynamic programming</text>
<rect x="420" y="396" width="12" height="12" fill="#990099"/>
<text x="438" y="406" font-family="Arial, sans-serif" font-size="12">dynamic programming 2d</text>
<rect x="595" y="396" width="12" height="12" fill="#ff9900"/>
<text x="613" y="406" font-family="Arial, sans-serif" font-size="12">backtracking</text>
<rect x="770" y="396" width="12" height="12" fill="#109618"/>
<text x="788" y="406" font-family="Arial, sans-serif" font-size="12">branch bound</text>
</svg>
